{
  "accessors": [
    {
      "bufferView": 2,
      "componentType": 5126,
      "count": 1717,
      "max": [
        8.721906661987305,
        33.50492858886719,
        5.037047863006592
      ],
      "min": [
        -7.379251956939697,
        -0.6280490159988403,
        -8.859074592590332
      ],
      "type": "VEC3"
    },
    {
      "bufferView": 2,
      "byteOffset": 20604,
      "componentType": 5126,
      "count": 1717,
      "max": [
        0.9994820952415466,
        0.9996883869171143,
        0.999383807182312
      ],
      "min": [
        -0.9986501932144165,
        -0.9984230995178223,
        -0.9997435212135315
      ],
      "type": "VEC3"
    },
    {
      "bufferView": 1,
      "componentType": 5126,
      "count": 1717,
      "max": [
        0.998062014579773,
        1.0005249977111816
      ],
      "min": [
        0.0012589689576998353,
        -0.00021600000036414713
      ],
      "type": "VEC2"
    },
    {
      "bufferView": 0,
      "componentType": 5125,
      "count": 7659,
      "type": "SCALAR"
    }
  ],
  "asset": {
    "extras": {
      "author": "Халява (https://sketchfab.com/fraufrize)",
      "license": "CC-BY-4.0 (http://creativecommons.org/licenses/by/4.0/)",
      "source": "https://sketchfab.com/3d-models/pc-computer-left-4-dead-2-gnome-chompski-d0fd8671225740dc85c740f32442cf89",
      "title": "PC Computer - Left 4 Dead 2 - Gnome Chompski"
    },
    "generator": "Sketchfab-16.16.0",
    "version": "2.0"
  },
  "bufferViews": [
    {
      "buffer": 0,
      "byteLength": 30636,
      "name": "floatBufferViews",
      "target": 34963
    },
    {
      "buffer": 0,
      "byteLength": 13736,
      "byteOffset": 30636,
      "byteStride": 8,
      "name": "floatBufferViews",
      "target": 34962
    },
    {
      "buffer": 0,
      "byteLength": 41208,
      "byteOffset": 44372,
      "byteStride": 12,
      "name": "floatBufferViews",
      "target": 34962
    }
  ],
  "buffers": [
    {
      "byteLength": 85580,
      "uri": "scene.bin"
    }
  ],
  "images": [
    {
      "uri": "textures/gnome_baseColor.png"
    }
  ],
  "materials": [
    {
      "doubleSided": true,
      "name": "gnome",
      "pbrMetallicRoughness": {
        "baseColorTexture": {
          "index": 0
        },
        "metallicFactor": 0.0,
        "roughnessFactor": 0.6
      }
    }
  ],
  "meshes": [
    {
      "name": "gnome-material",
      "primitives": [
        {
          "attributes": {
            "NORMAL": 1,
            "POSITION": 0,
            "TEXCOORD_0": 2
          },
          "indices": 3,
          "material": 0,
          "mode": 4
        }
      ]
    }
  ],
  "nodes": [
    {
      "children": [
        1
      ],
      "matrix": [
        1.0,
        0.0,
        0.0,
        0.0,
        0.0,
        2.220446049250313e-16,
        -1.0,
        0.0,
        0.0,
        1.0,
        2.220446049250313e-16,
        0.0,
        0.0,
        0.0,
        0.0,
        1.0
      ],
      "name": "Sketchfab_model"
    },
    {
      "children": [
        2
      ],
      "name": "Collada visual scene group"
    },
    {
      "children": [
        3
      ],
      "matrix": [
        1.0,
        0.0,
        0.0,
        0.0,
        0.0,
        -1.62921e-07,
        1.0,
        0.0,
        0.0,
        -1.0,
        -1.62921e-07,
        0.0,
        0.0,
        0.0,
        0.0,
        1.0
      ],
      "name": "v_Gnome"
    },
    {
      "mesh": 0,
      "name": "gnome-material"
    }
  ],
  "samplers": [
    {
      "magFilter": 9729,
      "minFilter": 9987,
      "wrapS": 10497,
      "wrapT": 10497
    }
  ],
  "scene": 0,
  "scenes": [
    {
      "name": "Sketchfab_Scene",
      "nodes": [
        0
      ]
    }
  ],
  "textures": [
    {
      "sampler": 0,
      "source": 0
    }
  ]
}
